<?xml version="1.0" standalone="no"?>
<!DOCTYPE svg PUBLIC "-//W3C//DTD SVG 20010904//EN"
 "http://www.w3.org/TR/2001/REC-SVG-20010904/DTD/svg10.dtd">
<svg version="1.0" xmlns="http://www.w3.org/2000/svg"
 width="512.000000pt" height="512.000000pt" viewBox="0 0 512.000000 512.000000"
 preserveAspectRatio="xMidYMid meet">
<metadata>
Created by potrace 1.14, written by Peter Selinger 2001-2017
</metadata>
<g transform="translate(0.000000,512.000000) scale(0.100000,-0.100000)"
fill="#000000" stroke="none">
<path d="M475 4809 c-22 -5 -51 -11 -65 -13 -14 -3 -58 -22 -99 -42 -96 -48
-194 -143 -244 -240 -71 -138 -67 -3 -64 -1979 2 -1596 4 -1785 18 -1825 70
-198 213 -337 404 -391 74 -21 4195 -21 4270 0 147 41 299 163 362 291 67 138
63 2 63 1946 0 1691 -1 1763 -19 1830 -26 95 -42 130 -95 201 -81 111 -203
189 -339 217 -55 12 -405 14 -2109 14 -1124 -1 -2061 -5 -2083 -9z m4170 -173
c121 -32 214 -109 267 -221 l33 -70 3 -356 3 -355 -2391 0 -2391 0 3 355 3
356 31 66 c50 106 136 182 249 220 47 16 190 17 2095 18 1673 1 2054 -2 2095
-13z m305 -2491 c0 -1069 -3 -1329 -14 -1370 -38 -142 -130 -240 -271 -287
-46 -15 -209 -17 -2100 -17 -2201 -1 -2082 -3 -2183 48 -58 30 -105 73 -146
135 -69 105 -66 27 -66 1487 0 869 3 1318 10 1321 5 2 1081 3 2390 3 l2380 0
0 -1320z"/>
<path d="M568 4395 c-164 -33 -255 -207 -189 -362 73 -168 294 -213 425 -86
191 185 25 500 -236 448z m118 -187 c74 -66 2 -189 -91 -158 -44 14 -65 44
-65 90 1 84 94 124 156 68z"/>
<path d="M1407 4399 c-52 -8 -119 -43 -154 -81 -75 -81 -91 -209 -38 -306 46
-85 139 -142 230 -142 153 0 276 136 262 290 -13 152 -150 261 -300 239z m99
-192 c40 -35 42 -97 5 -135 -63 -62 -161 -22 -161 66 0 81 93 123 156 69z"/>
<path d="M2185 4388 c-81 -30 -146 -97 -173 -175 -14 -42 -9 -140 10 -184 72
-167 298 -213 427 -87 131 128 99 346 -62 430 -46 23 -159 33 -202 16z m146
-187 c48 -48 36 -125 -24 -153 -62 -29 -124 8 -134 79 -4 33 -1 43 25 71 41
43 91 44 133 3z"/>
<path d="M2657 2950 c-24 -19 -38 -61 -63 -185 -2 -11 -8 -42 -14 -70 -6 -27
-12 -61 -15 -74 -2 -14 -16 -77 -30 -140 -13 -64 -27 -127 -29 -141 -3 -14
-16 -77 -30 -140 -14 -63 -27 -126 -30 -140 -9 -46 -105 -503 -135 -646 -30
-140 -31 -174 -4 -206 32 -37 98 -30 127 14 8 13 24 66 35 118 11 52 43 205
71 340 28 135 60 288 71 340 11 52 23 106 25 120 3 14 19 86 35 160 16 74 31
146 34 159 2 14 9 47 15 75 6 28 12 60 14 71 3 11 14 63 25 115 39 182 38 205
-8 233 -38 22 -63 21 -94 -3z"/>
<path d="M1938 2588 c-29 -23 -55 -44 -58 -47 -3 -3 -48 -42 -100 -86 -52 -44
-97 -82 -100 -85 -3 -3 -34 -30 -70 -60 -199 -169 -220 -190 -220 -228 0 -34
27 -65 119 -142 30 -25 70 -59 90 -76 397 -341 394 -339 438 -328 35 9 53 27
62 62 11 38 -8 70 -76 128 -228 192 -408 348 -411 354 -1 4 73 71 165 150 92
78 192 163 222 189 30 25 60 51 67 56 65 50 33 155 -47 155 -17 0 -48 -16 -81
-42z"/>
<path d="M3053 2615 c-11 -8 -26 -28 -31 -44 -16 -44 8 -76 132 -180 59 -50
114 -97 121 -104 7 -7 63 -54 124 -106 61 -51 111 -97 111 -102 0 -4 -6 -12
-14 -16 -8 -4 -29 -22 -48 -38 -18 -17 -119 -103 -223 -191 -105 -89 -196
-172 -201 -185 -28 -62 35 -132 97 -110 23 8 160 115 225 176 6 5 35 30 64 55
290 243 309 262 316 296 3 18 1 41 -5 52 -10 19 -514 456 -571 495 -30 21 -69
22 -97 2z"/>
</g>
</svg>
